<svg id="kity_svg_6" xmlns="http://www.w3.org/2000/svg" xmlns:xlink="http://www.w3.org/1999/xlink" version="1.1" width="1514" height="1089" style="background: rgb(251, 251, 251); visibility: visible;" viewBox="0 0 1514 1089"><defs id="kity_defs_7"><linearGradient id="kity_linearGradient_17" x1="0" y1="0" x2="0" y2="1"><stop id="kity_stop_18" offset="0" stop-color="rgb(255, 255, 255)"></stop><stop id="kity_stop_19" offset="1" stop-color="rgb(204, 204, 204)"></stop></linearGradient><marker id="kity_marker_2" orient="auto" refX="6" refY="0" viewBox="-7 -7 14 14" markerWidth="7" markerHeight="7" markerUnits="userSpaceOnUse"><path id="kity_path_3" fill="rgb(115, 161, 191)" stroke="none" d="M6,0A6,6,0,1,1,-6,0A6,6,0,1,1,6,0"></path></marker></defs><g id="kity_g_8"><g id="minder1" text-rendering="optimize-speed"><g id="minder_connect_group1"><path id="kity_path_31" fill="none" stroke="rgb(115, 161, 191)" stroke-width="1" d="M133.5,545.5A231,258,0,0,1,364.5,287.5"></path><path id="kity_path_47" fill="none" stroke="rgb(115, 161, 191)" stroke-width="1" d="M472.5,287.5C492.5,287.5,492.5,57.5,512.5,57.5"></path><path id="kity_path_55" fill="none" stroke="rgb(115, 161, 191)" stroke-width="1" d="M472.5,287.5C492.5,287.5,492.5,213.5,512.5,213.5"></path><path id="kity_path_63" fill="none" stroke="rgb(115, 161, 191)" stroke-width="1" d="M625.5,57.5C645.5,57.5,645.5,31.5,665.5,31.5"></path><path id="kity_path_71" fill="none" stroke="rgb(115, 161, 191)" stroke-width="1" d="M625.5,57.5C645.5,57.5,645.5,83.5,665.5,83.5"></path><path id="kity_path_79" fill="none" stroke="rgb(115, 161, 191)" stroke-width="1" d="M133.5,545.5A231,60,0,0,0,364.5,605.5"></path><path id="kity_path_87" fill="none" stroke="rgb(115, 161, 191)" stroke-width="1" d="M504.5,605.5C524.5,605.5,524.5,579.5,544.5,579.5"></path><path id="kity_path_95" fill="none" stroke="rgb(115, 161, 191)" stroke-width="1" d="M504.5,605.5C524.5,605.5,524.5,631.5,544.5,631.5"></path><path id="kity_path_103" fill="none" stroke="rgb(115, 161, 191)" stroke-width="1" d="M643.5,213.5C663.5,213.5,663.5,135.5,683.5,135.5"></path><path id="kity_path_111" fill="none" stroke="rgb(115, 161, 191)" stroke-width="1" d="M643.5,213.5C663.5,213.5,663.5,187.5,683.5,187.5"></path><path id="kity_path_119" fill="none" stroke="rgb(115, 161, 191)" stroke-width="1" d="M643.5,213.5C663.5,213.5,663.5,239.5,683.5,239.5"></path><path id="kity_path_127" fill="none" stroke="rgb(115, 161, 191)" stroke-width="1" d="M643.5,213.5C663.5,213.5,663.5,291.5,683.5,291.5"></path><path id="kity_path_135" fill="none" stroke="rgb(115, 161, 191)" stroke-width="1" d="M472.5,287.5C492.5,287.5,492.5,431,512.5,431"></path><path id="kity_path_144" fill="none" stroke="rgb(115, 161, 191)" stroke-width="1" d="M133.5,545.5A231,259,0,0,0,364.5,804.5"></path><path id="kity_path_152" fill="none" stroke="rgb(115, 161, 191)" stroke-width="1" d="M701.5,804.5C721.5,804.5,721.5,694.5,741.5,694.5"></path><path id="kity_path_160" fill="none" stroke="rgb(115, 161, 191)" stroke-width="1" d="M859.5,694.5C879.5,694.5,879.5,694.5,899.5,694.5"></path><path id="kity_path_168" fill="none" stroke="rgb(115, 161, 191)" stroke-width="1" d="M701.5,804.5C721.5,804.5,721.5,915.5,741.5,915.5"></path><path id="kity_path_265" fill="none" stroke="rgb(115, 161, 191)" stroke-width="1" d="M1131.5,772.5C1151.5,772.5,1151.5,746.5,1171.5,746.5"></path><path id="kity_path_266" fill="none" stroke="rgb(115, 161, 191)" stroke-width="1" d="M1131.5,772.5C1151.5,772.5,1151.5,798.5,1171.5,798.5"></path><path id="kity_path_267" fill="none" stroke="rgb(115, 161, 191)" stroke-width="1" d="M919.5,915.5C939.5,915.5,939.5,772.5,959.5,772.5"></path><path id="kity_path_268" fill="none" stroke="rgb(115, 161, 191)" stroke-width="1" d="M1156.5,876.5C1176.5,876.5,1176.5,850.5,1196.5,850.5"></path><path id="kity_path_269" fill="none" stroke="rgb(115, 161, 191)" stroke-width="1" d="M1156.5,876.5C1176.5,876.5,1176.5,902.5,1196.5,902.5"></path><path id="kity_path_270" fill="none" stroke="rgb(115, 161, 191)" stroke-width="1" d="M919.5,915.5C939.5,915.5,939.5,876.5,959.5,876.5"></path><path id="kity_path_271" fill="none" stroke="rgb(115, 161, 191)" stroke-width="1" d="M1171.5,980.5C1191.5,980.5,1191.5,954.5,1211.5,954.5"></path><path id="kity_path_272" fill="none" stroke="rgb(115, 161, 191)" stroke-width="1" d="M1171.5,980.5C1191.5,980.5,1191.5,1006.5,1211.5,1006.5"></path><path id="kity_path_273" fill="none" stroke="rgb(115, 161, 191)" stroke-width="1" d="M919.5,915.5C939.5,915.5,939.5,980.5,959.5,980.5"></path><path id="kity_path_274" fill="none" stroke="rgb(115, 161, 191)" stroke-width="1" d="M919.5,915.5C939.5,915.5,939.5,1058.5,959.5,1058.5"></path></g><g id="minder_node1"><path id="node_outline1" fill="rgb(115, 161, 191)" stroke="rgb(57, 80, 96)" d="M25.5,525.5h216a5,5,0,0,1,5,5v30a5,5,0,0,1,-5,5h-216a5,5,0,0,1,-5,-5v-30a5,5,0,0,1,5,-5z" stroke-width="3"></path><g id="node_text1" fill="white"><text id="kity_text_22" text-rendering="inherit" font-size="16" dy=".8em" y="535.0999999046326" x="44.5">投资时需要掌握哪些数据</text></g></g><g id="kity_g_14" display="none"><path id="kity_path_15" fill="none" stroke="none" d="M44.5,545.5h0v0h0z"></path><path id="kity_path_16" fill="none" stroke="none"></path></g><g id="minder_node2" opacity="1"><g id="node_expander1" style="cursor: pointer;"><path id="kity_path_36" fill="white" stroke="gray" d="M365.5,287.5A6,6,0,1,1,353.5,287.5A6,6,0,1,1,365.5,287.5"></path><path id="kity_path_37" fill="none" stroke="gray" d="M355,287.5L364,287.5"></path></g><path id="node_outline2" fill="rgb(238, 243, 246)" stroke="rgb(115, 161, 191)" d="M369.5,274.5h100a3,3,0,0,1,3,3v20a3,3,0,0,1,-3,3h-100a3,3,0,0,1,-3,-3v-20a3,3,0,0,1,3,-3z" stroke-width="1"></path><g id="node_text2" fill="black"><text id="kity_text_33" text-rendering="inherit" font-size="14" dy=".8em" y="278.40000009536743" x="386.5">GDP和CPI</text></g></g><g id="minder_node4"><g id="node_expander3" style="cursor: pointer;"><path id="kity_path_52" fill="white" stroke="gray" d="M512.5,57.5A6,6,0,1,1,500.5,57.5A6,6,0,1,1,512.5,57.5"></path><path id="kity_path_53" fill="none" stroke="gray" d="M502,57.5L511,57.5"></path></g><path id="node_outline4" fill="none" stroke="none" d="M517.5,46.5h103a5,5,0,0,1,5,5v12a5,5,0,0,1,-5,5h-103a5,5,0,0,1,-5,-5v-12a5,5,0,0,1,5,-5z" stroke-width="3"></path><g id="node_text4" fill="black"><text id="kity_text_49" text-rendering="inherit" font-size="12" dy=".8em" y="49.700000047683716" x="522.5">GDP(经济增长率)</text></g></g><g id="minder_node5"><g id="node_expander4" style="cursor: pointer;"><path id="kity_path_60" fill="white" stroke="gray" d="M512.5,213.5A6,6,0,1,1,500.5,213.5A6,6,0,1,1,512.5,213.5"></path><path id="kity_path_61" fill="none" stroke="gray" d="M502,213.5L511,213.5"></path></g><path id="node_outline5" fill="none" stroke="none" d="M517.5,202.5h121a5,5,0,0,1,5,5v12a5,5,0,0,1,-5,5h-121a5,5,0,0,1,-5,-5v-12a5,5,0,0,1,5,-5z" stroke-width="3"></path><g id="node_text5" fill="black"><text id="kity_text_57" text-rendering="inherit" font-size="12" dy=".8em" y="205.70000004768372" x="522.5">CPI(消费者物价指数)</text></g></g><g id="minder_node6"><g id="node_expander5" style="cursor: pointer;" display="none"><path id="kity_path_68" fill="white" stroke="gray" d="M665.5,31.5A6,6,0,1,1,653.5,31.5A6,6,0,1,1,665.5,31.5"></path><path id="kity_path_69" fill="none" stroke="gray"></path></g><path id="node_outline6" fill="none" stroke="none" d="M670.5,20.5h61a5,5,0,0,1,5,5v12a5,5,0,0,1,-5,5h-61a5,5,0,0,1,-5,-5v-12a5,5,0,0,1,5,-5z" stroke-width="3"></path><g id="node_text6" fill="black"><text id="kity_text_65" text-rendering="inherit" font-size="12" dy=".8em" y="23.700000047683716" x="675.5">季度GDP</text></g></g><g id="minder_node7"><g id="node_expander6" style="cursor: pointer;" display="none"><path id="kity_path_76" fill="white" stroke="gray" d="M665.5,83.5A6,6,0,1,1,653.5,83.5A6,6,0,1,1,665.5,83.5"></path><path id="kity_path_77" fill="none" stroke="gray"></path></g><path id="node_outline7" fill="none" stroke="none" d="M670.5,72.5h61a5,5,0,0,1,5,5v12a5,5,0,0,1,-5,5h-61a5,5,0,0,1,-5,-5v-12a5,5,0,0,1,5,-5z" stroke-width="3"></path><g id="node_text7" fill="black"><text id="kity_text_73" text-rendering="inherit" font-size="12" dy=".8em" y="75.70000004768372" x="675.5">年度GDP</text></g></g><g id="minder_node8"><g id="node_expander7" style="cursor: pointer;"><path id="kity_path_84" fill="white" stroke="gray" d="M365.5,605.5A6,6,0,1,1,353.5,605.5A6,6,0,1,1,365.5,605.5"></path><path id="kity_path_85" fill="none" stroke="gray" d="M355,605.5L364,605.5"></path></g><path id="node_outline8" fill="rgb(238, 243, 246)" stroke="rgb(115, 161, 191)" d="M369.5,592.5h132a3,3,0,0,1,3,3v20a3,3,0,0,1,-3,3h-132a3,3,0,0,1,-3,-3v-20a3,3,0,0,1,3,-3z" stroke-width="1"></path><g id="node_text8" fill="black"><text id="kity_text_81" text-rendering="inherit" font-size="14" dy=".8em" y="596.4000000953674" x="386.5">中央银行的职责</text></g></g><g id="minder_node9"><g id="node_expander8" style="cursor: pointer;" display="none"><path id="kity_path_92" fill="white" stroke="gray" d="M544.5,579.5A6,6,0,1,1,532.5,579.5A6,6,0,1,1,544.5,579.5"></path><path id="kity_path_93" fill="none" stroke="gray"></path></g><path id="node_outline9" fill="none" stroke="none" d="M549.5,568.5h60a5,5,0,0,1,5,5v12a5,5,0,0,1,-5,5h-60a5,5,0,0,1,-5,-5v-12a5,5,0,0,1,5,-5z" stroke-width="3"></path><g id="node_text9" fill="black"><text id="kity_text_89" text-rendering="inherit" font-size="12" dy=".8em" y="571.7000000476837" x="554.5">调控物价</text></g></g><g id="minder_node10"><g id="node_expander9" style="cursor: pointer;" display="none"><path id="kity_path_100" fill="white" stroke="gray" d="M544.5,631.5A6,6,0,1,1,532.5,631.5A6,6,0,1,1,544.5,631.5"></path><path id="kity_path_101" fill="none" stroke="gray"></path></g><path id="node_outline10" fill="none" stroke="none" d="M549.5,620.5h83a5,5,0,0,1,5,5v12a5,5,0,0,1,-5,5h-83a5,5,0,0,1,-5,-5v-12a5,5,0,0,1,5,-5z" stroke-width="3"></path><g id="node_text10" fill="black"><text id="kity_text_97" text-rendering="inherit" font-size="12" dy=".8em" y="623.7000000476837" x="554.5">促进经济增长</text></g></g><g id="minder_node11"><g id="node_expander10" style="cursor: pointer;" display="none"><path id="kity_path_108" fill="white" stroke="gray" d="M683.5,135.5A6,6,0,1,1,671.5,135.5A6,6,0,1,1,683.5,135.5"></path><path id="kity_path_109" fill="none" stroke="gray"></path></g><path id="node_outline11" fill="none" stroke="none" d="M688.5,124.5h144a5,5,0,0,1,5,5v12a5,5,0,0,1,-5,5h-144a5,5,0,0,1,-5,-5v-12a5,5,0,0,1,5,-5z" stroke-width="3"></path><g id="node_text11" fill="black"><text id="kity_text_105" text-rendering="inherit" font-size="12" dy=".8em" y="127.70000004768372" x="693.5">衡量同伙膨胀的重要指标</text></g></g><g id="minder_node12"><g id="node_expander11" style="cursor: pointer;" display="none"><path id="kity_path_116" fill="white" stroke="gray" d="M683.5,187.5A6,6,0,1,1,671.5,187.5A6,6,0,1,1,683.5,187.5"></path><path id="kity_path_117" fill="none" stroke="gray"></path></g><path id="node_outline12" fill="none" stroke="none" d="M688.5,176.5h589a5,5,0,0,1,5,5v12a5,5,0,0,1,-5,5h-589a5,5,0,0,1,-5,-5v-12a5,5,0,0,1,5,-5z" stroke-width="3"></path><g id="node_text12" fill="black"><text id="kity_text_113" text-rendering="inherit" font-size="12" dy=".8em" y="179.70000004768372" x="693.5">中国国情，如果CPI到达3%以上，就说明物价增长过快，央行会通过加息,提高存款准备金率等方式来收紧货币</text></g></g><g id="minder_node13"><g id="node_expander12" style="cursor: pointer;" display="none"><path id="kity_path_124" fill="white" stroke="gray" d="M683.5,239.5A6,6,0,1,1,671.5,239.5A6,6,0,1,1,683.5,239.5"></path><path id="kity_path_125" fill="none" stroke="gray"></path></g><path id="node_outline13" fill="none" stroke="none" d="M688.5,228.5h600a5,5,0,0,1,5,5v12a5,5,0,0,1,-5,5h-600a5,5,0,0,1,-5,-5v-12a5,5,0,0,1,5,-5z" stroke-width="3"></path><g id="node_text13" fill="black"><text id="kity_text_121" text-rendering="inherit" font-size="12" dy=".8em" y="231.70000004768372" x="693.5">如果CPI跌倒1%以下，说明物价增长过慢，意味着经济低迷，央行会通过降息，降低存款准备金率来刺激经济。</text></g></g><g id="minder_node14"><g id="node_expander13" style="cursor: pointer;" display="none"><path id="kity_path_132" fill="white" stroke="gray" d="M683.5,291.5A6,6,0,1,1,671.5,291.5A6,6,0,1,1,683.5,291.5"></path><path id="kity_path_133" fill="none" stroke="gray"></path></g><path id="node_outline14" fill="none" stroke="none" d="M688.5,280.5h481a5,5,0,0,1,5,5v12a5,5,0,0,1,-5,5h-481a5,5,0,0,1,-5,-5v-12a5,5,0,0,1,5,-5z" stroke-width="3"></path><g id="node_text14" fill="black"><text id="kity_text_129" text-rendering="inherit" font-size="12" dy=".8em" y="283.7000000476837" x="693.5">CPI 1%-3%之间是正常水平，这只是结果，还是需要论证过程的，只不过目前没这个能力</text></g></g><g id="minder_node15"><g id="node_expander14" style="cursor: pointer;" display="none"><path id="kity_path_140" fill="white" stroke="gray" d="M512.5,431A6,6,0,1,1,500.5,431A6,6,0,1,1,512.5,431"></path><path id="kity_path_141" fill="none" stroke="gray"></path></g><path id="node_outline15" fill="none" stroke="none" d="M517.5,332.5h646a5,5,0,0,1,5,5v187a5,5,0,0,1,-5,5h-646a5,5,0,0,1,-5,-5v-187a5,5,0,0,1,5,-5z" stroke-width="3"></path><g id="node_text15" fill="black"><text id="kity_text_137" text-rendering="inherit" font-size="12" dy=".8em" y="510.7000000476837" x="522.5">美林时钟理论，貌似是投资圈一个比较有名的理论，由美国投行美林证券提出的，每个阶段的资产配置策略应该跟随变动</text></g><image id="kity_image_142" xlink:href="http://kityminder-img.gz.bcebos.com/0f4d3ac228d04bb6a3f1816053276ba90fbd879b" x="740.5" y="337.5" width="200" height="170"></image></g><g id="minder_node16"><g id="node_expander15" style="cursor: pointer;"><path id="kity_path_149" fill="white" stroke="gray" d="M365.5,804.5A6,6,0,1,1,353.5,804.5A6,6,0,1,1,365.5,804.5"></path><path id="kity_path_150" fill="none" stroke="gray" d="M355,804.5L364,804.5"></path></g><path id="node_outline16" fill="rgb(238, 243, 246)" stroke="rgb(115, 161, 191)" d="M369.5,791.5h329a3,3,0,0,1,3,3v20a3,3,0,0,1,-3,3h-329a3,3,0,0,1,-3,-3v-20a3,3,0,0,1,3,-3z" stroke-width="1"></path><g id="node_text16" fill="black"><text id="kity_text_146" text-rendering="inherit" font-size="14" dy=".8em" y="795.4000000953674" x="386.5">债券的到期收益率和股票指数的盈利与估值水平</text></g></g><g id="minder_node17"><g id="node_expander16" style="cursor: pointer;"><path id="kity_path_157" fill="white" stroke="gray" d="M741.5,694.5A6,6,0,1,1,729.5,694.5A6,6,0,1,1,741.5,694.5"></path><path id="kity_path_158" fill="none" stroke="gray" d="M731,694.5L740,694.5"></path></g><path id="node_outline17" fill="none" stroke="none" d="M746.5,683.5h108a5,5,0,0,1,5,5v12a5,5,0,0,1,-5,5h-108a5,5,0,0,1,-5,-5v-12a5,5,0,0,1,5,-5z" stroke-width="3"></path><g id="node_text17" fill="black"><text id="kity_text_154" text-rendering="inherit" font-size="12" dy=".8em" y="686.7000000476837" x="751.5">债券的到期收益率</text></g></g><g id="minder_node18"><g id="node_expander17" style="cursor: pointer;" display="none"><path id="kity_path_165" fill="white" stroke="gray" d="M899.5,694.5A6,6,0,1,1,887.5,694.5A6,6,0,1,1,899.5,694.5"></path><path id="kity_path_166" fill="none" stroke="gray"></path></g><path id="node_outline18" fill="none" stroke="none" d="M904.5,683.5h452a5,5,0,0,1,5,5v12a5,5,0,0,1,-5,5h-452a5,5,0,0,1,-5,-5v-12a5,5,0,0,1,5,-5z" stroke-width="3"></path><g id="node_text18" fill="black"><text id="kity_text_162" text-rendering="inherit" font-size="12" dy=".8em" y="686.7000000476837" x="909.5">通过3年期AA+企业债的"到期收益率"的情况，来判断债券市场未来的涨跌，5买4卖</text></g></g><g id="minder_node19" opacity="1"><g id="node_expander18" style="cursor: pointer;"><path id="kity_path_173" fill="white" stroke="gray" d="M741.5,915.5A6,6,0,1,1,729.5,915.5A6,6,0,1,1,741.5,915.5"></path><path id="kity_path_174" fill="none" stroke="gray" d="M731,915.5L740,915.5"></path></g><path id="node_outline19" fill="none" stroke="none" d="M746.5,904.5h168a5,5,0,0,1,5,5v12a5,5,0,0,1,-5,5h-168a5,5,0,0,1,-5,-5v-12a5,5,0,0,1,5,-5z" stroke-width="3"></path><g id="node_text19" fill="black"><text id="kity_text_170" text-rendering="inherit" font-size="12" dy=".8em" y="907.7000000476837" x="751.5">股票的盈利增长率和估值水平</text></g></g><g id="kity_g_12" display="none"><path id="kity_path_13" fill="none" stroke="rgb(66, 94, 112)" d="M-431.5,532.5h329a3,3,0,0,1,3,3v20a3,3,0,0,1,-3,3h-329a3,3,0,0,1,-3,-3v-20a3,3,0,0,1,3,-3z" stroke-width="5"></path></g><g id="minder_node22"><g id="node_expander21" style="cursor: pointer;" display="none"><path id="kity_path_197" fill="white" stroke="gray" d="M1171.5,746.5A6,6,0,1,1,1159.5,746.5A6,6,0,1,1,1171.5,746.5"></path><path id="kity_path_198" fill="none" stroke="gray"></path></g><path id="node_outline22" fill="none" stroke="none" d="M1176.5,735.5h313a5,5,0,0,1,5,5v12a5,5,0,0,1,-5,5h-313a5,5,0,0,1,-5,-5v-12a5,5,0,0,1,5,-5z" stroke-width="3"></path><g id="node_text22" fill="black"><text id="kity_text_194" text-rendering="inherit" font-size="12" dy=".8em" y="738.7000000476837" x="1181.5">上海证券交易所里，市值最大的50家上市公司的股票构成</text></g></g><g id="minder_node26"><g id="node_expander25" style="cursor: pointer;" display="none"><path id="kity_path_229" fill="white" stroke="gray" d="M1171.5,798.5A6,6,0,1,1,1159.5,798.5A6,6,0,1,1,1171.5,798.5"></path><path id="kity_path_230" fill="none" stroke="gray"></path></g><path id="node_outline26" fill="none" stroke="none" d="M1176.5,787.5h147a5,5,0,0,1,5,5v12a5,5,0,0,1,-5,5h-147a5,5,0,0,1,-5,-5v-12a5,5,0,0,1,5,-5z" stroke-width="3"></path><g id="node_text26" fill="black"><text id="kity_text_226" text-rendering="inherit" font-size="12" dy=".8em" y="790.7000000476837" x="1181.5">市盈率 11-30倍 比较合理</text></g></g><g id="minder_node20"><g id="node_expander19" style="cursor: pointer;"><path id="kity_path_181" fill="white" stroke="gray" d="M959.5,772.5A6,6,0,1,1,947.5,772.5A6,6,0,1,1,959.5,772.5"></path><path id="kity_path_182" fill="none" stroke="gray" d="M949,772.5L958,772.5"></path></g><path id="node_outline20" fill="none" stroke="none" d="M964.5,761.5h162a5,5,0,0,1,5,5v12a5,5,0,0,1,-5,5h-162a5,5,0,0,1,-5,-5v-12a5,5,0,0,1,5,-5z" stroke-width="3"></path><g id="node_text20" fill="black"><text id="kity_text_178" text-rendering="inherit" font-size="12" dy=".8em" y="764.7000000476837" x="969.5">上证50指数 "超级大盘指数"&#xa0;</text></g></g><g id="minder_node23"><g id="node_expander22" style="cursor: pointer;" display="none"><path id="kity_path_205" fill="white" stroke="gray" d="M1196.5,850.5A6,6,0,1,1,1184.5,850.5A6,6,0,1,1,1196.5,850.5"></path><path id="kity_path_206" fill="none" stroke="gray"></path></g><path id="node_outline23" fill="none" stroke="none" d="M1201.5,839.5h264a5,5,0,0,1,5,5v12a5,5,0,0,1,-5,5h-264a5,5,0,0,1,-5,-5v-12a5,5,0,0,1,5,-5z" stroke-width="3"></path><g id="node_text23" fill="black"><text id="kity_text_202" text-rendering="inherit" font-size="12" dy=".8em" y="842.7000000476837" x="1206.5">沪深两市市值最大的300家上市公司的股票构成&#xa0;</text></g></g><g id="minder_node27"><g id="node_expander26" style="cursor: pointer;" display="none"><path id="kity_path_237" fill="white" stroke="gray" d="M1196.5,902.5A6,6,0,1,1,1184.5,902.5A6,6,0,1,1,1196.5,902.5"></path><path id="kity_path_238" fill="none" stroke="gray"></path></g><path id="node_outline27" fill="none" stroke="none" d="M1201.5,891.5h146a5,5,0,0,1,5,5v12a5,5,0,0,1,-5,5h-146a5,5,0,0,1,-5,-5v-12a5,5,0,0,1,5,-5z" stroke-width="3"></path><g id="node_text27" fill="black"><text id="kity_text_234" text-rendering="inherit" font-size="12" dy=".8em" y="894.7000000476837" x="1206.5">市盈率 12-15倍 合理区间</text></g></g><g id="minder_node21"><g id="node_expander20" style="cursor: pointer;"><path id="kity_path_189" fill="white" stroke="gray" d="M959.5,876.5A6,6,0,1,1,947.5,876.5A6,6,0,1,1,959.5,876.5"></path><path id="kity_path_190" fill="none" stroke="gray" d="M949,876.5L958,876.5"></path></g><path id="node_outline21" fill="none" stroke="none" d="M964.5,865.5h187a5,5,0,0,1,5,5v12a5,5,0,0,1,-5,5h-187a5,5,0,0,1,-5,-5v-12a5,5,0,0,1,5,-5z" stroke-width="3"></path><g id="node_text21" fill="black"><text id="kity_text_186" text-rendering="inherit" font-size="12" dy=".8em" y="868.7000000476837" x="969.5">沪深300指数 "A股市场的晴雨表"</text></g></g><g id="minder_node25"><g id="node_expander24" style="cursor: pointer;" display="none"><path id="kity_path_221" fill="white" stroke="gray" d="M1211.5,954.5A6,6,0,1,1,1199.5,954.5A6,6,0,1,1,1211.5,954.5"></path><path id="kity_path_222" fill="none" stroke="gray"></path></g><path id="node_outline25" fill="none" stroke="none" d="M1216.5,943.5h234a5,5,0,0,1,5,5v12a5,5,0,0,1,-5,5h-234a5,5,0,0,1,-5,-5v-12a5,5,0,0,1,5,-5z" stroke-width="3"></path><g id="node_text25" fill="black"><text id="kity_text_218" text-rendering="inherit" font-size="12" dy=".8em" y="946.7000000476837" x="1221.5">沪深市值排名在300到800之间的股票集合</text></g></g><g id="minder_node28"><g id="node_expander27" style="cursor: pointer;" display="none"><path id="kity_path_245" fill="white" stroke="gray" d="M1211.5,1006.5A6,6,0,1,1,1199.5,1006.5A6,6,0,1,1,1211.5,1006.5"></path><path id="kity_path_246" fill="none" stroke="gray"></path></g><path id="node_outline28" fill="none" stroke="none" d="M1216.5,995.5h150a5,5,0,0,1,5,5v12a5,5,0,0,1,-5,5h-150a5,5,0,0,1,-5,-5v-12a5,5,0,0,1,5,-5z" stroke-width="3"></path><g id="node_text28" fill="black"><text id="kity_text_242" text-rendering="inherit" font-size="12" dy=".8em" y="998.7000000476837" x="1221.5">市盈率 25-30倍 合理区间&#xa0;</text></g></g><g id="minder_node24"><g id="node_expander23" style="cursor: pointer;"><path id="kity_path_213" fill="white" stroke="gray" d="M959.5,980.5A6,6,0,1,1,947.5,980.5A6,6,0,1,1,959.5,980.5"></path><path id="kity_path_214" fill="none" stroke="gray" d="M949,980.5L958,980.5"></path></g><path id="node_outline24" fill="none" stroke="none" d="M964.5,969.5h202a5,5,0,0,1,5,5v12a5,5,0,0,1,-5,5h-202a5,5,0,0,1,-5,-5v-12a5,5,0,0,1,5,-5z" stroke-width="3"></path><g id="node_text24" fill="black"><text id="kity_text_210" text-rendering="inherit" font-size="12" dy=".8em" y="972.7000000476837" x="969.5">沪深500指数 "中小规模公司的集合"</text></g></g><g id="minder_node29"><g id="node_expander28" style="cursor: pointer;" display="none"><path id="kity_path_253" fill="white" stroke="gray" d="M959.5,1058.5A6,6,0,1,1,947.5,1058.5A6,6,0,1,1,959.5,1058.5"></path><path id="kity_path_254" fill="none" stroke="gray"></path></g><path id="node_outline29" fill="none" stroke="none" d="M964.5,1047.5h493a5,5,0,0,1,5,5v12a5,5,0,0,1,-5,5h-493a5,5,0,0,1,-5,-5v-12a5,5,0,0,1,5,-5z" stroke-width="3"></path><g id="node_text29" fill="black"><text id="kity_text_250" text-rendering="inherit" font-size="12" dy=".8em" y="1050.7000000476837" x="969.5">指数的盈利增长，趋势比绝对值重要，通过GDP的增长趋势来估计股票指数的盈利增长情况</text></g></g></g></g></svg>